<?xml version="1.0" encoding="utf-8"?>
<svg version="1.1" id="Layer_1" xmlns="http://www.w3.org/2000/svg" xmlns:xlink="http://www.w3.org/1999/xlink" x="0px" y="0px"
	 viewBox="0 0 128 128" style="enable-background:new 0 0 128 128;" xml:space="preserve">
<g>
	<circle style="fill:#512BD4;" cx="64" cy="64" r="64"/>
	<g>
		<path style="fill:#FFFFFF;" d="M64,96c-17.7,0-32-14.3-32-32s14.3-32,32-32s32,14.3,32,32S81.7,96,64,96z M64,40
			c-13.2,0-24,10.8-24,24s10.8,24,24,24s24-10.8,24-24S77.2,40,64,40z"/>
		<path style="fill:#FFFFFF;" d="M80,64c0,8.8-7.2,16-16,16s-16-7.2-16-16s7.2-16,16-16S80,55.2,80,64z"/>
	</g>
</g>
</svg>
